<?xml version="1.0" encoding="UTF-8" standalone="no"?>
<!DOCTYPE svg PUBLIC "-//W3C//DTD SVG 1.1//EN" "http://www.w3.org/Graphics/SVG/1.1/DTD/svg11.dtd">
<svg width="100%" height="100%" viewBox="0 0 32 32" version="1.1" xmlns="http://www.w3.org/2000/svg" xmlns:xlink="http://www.w3.org/1999/xlink" xml:space="preserve" xmlns:serif="http://www.serif.com/" style="fill-rule:evenodd;clip-rule:evenodd;stroke-linejoin:round;stroke-miterlimit:2;">
    <g transform="matrix(1,0,0,1,-1445.69,0)">
        <g id="favicon" transform="matrix(1.06019,0,0,1.55598,-134.957,-10.3258)">
            <rect x="1490.91" y="6.636" width="30.183" height="20.566" style="fill:none;"/>
            <g transform="matrix(0.1568,0,0,0.106838,1383.25,2.67126)">
                <g transform="matrix(1,0,0,1,541.956,70.9099)">
                    <path d="M307.776,34.201C289.772,20.158 264.65,8.155 223.961,0.593C214.292,7.971 207.493,14.629 200.877,21.245C241.256,17.811 279.305,18.17 307.776,34.201Z" style="fill:rgb(19,72,142);"/>
                </g>
                <g transform="matrix(1,0,0,1,541.956,70.9099)">
                    <path d="M167.242,71.248C159.562,87.787 158.285,105.616 157.052,124.306C168.662,111.556 180.143,100.983 193.162,91.398C184.424,85.066 175.219,78.147 167.242,71.248Z" style="fill:rgb(247,173,117);"/>
                </g>
                <g transform="matrix(1,0,0,1,541.956,70.9099)">
                    <path d="M186.518,37.987C174.649,41.217 162.517,45.457 150.105,50.803C153.06,55.846 159.704,64.599 167.242,71.248C171.744,59.731 178.301,47.961 186.518,37.987Z" style="fill:rgb(247,173,117);"/>
                </g>
                <g transform="matrix(1,0,0,1,541.956,70.9099)">
                    <path d="M331.672,47.968C287.09,29.476 239.414,23.614 186.518,37.987C178.301,47.961 171.744,59.731 167.242,71.248L167.242,71.256L167.235,71.241L167.242,71.248C175.219,78.147 184.424,85.066 193.162,91.398C192.845,91.624 192.534,91.857 192.223,92.089L192.223,92.097C192.294,92.041 192.364,91.992 192.435,91.941C231.981,62.291 278.177,47.446 331.672,47.968Z" style="fill:rgb(239,122,38);"/>
                </g>
            </g>
        </g>
    </g>
</svg>
