<?xml version="1.0" encoding="UTF-8" standalone="no"?>
<!DOCTYPE svg PUBLIC "-//W3C//DTD SVG 1.1//EN" "http://www.w3.org/Graphics/SVG/1.1/DTD/svg11.dtd">
<svg width="100%" height="100%" viewBox="0 0 357 211" version="1.1" xmlns="http://www.w3.org/2000/svg" xmlns:xlink="http://www.w3.org/1999/xlink" xml:space="preserve" xmlns:serif="http://www.serif.com/" style="fill-rule:evenodd;clip-rule:evenodd;stroke-linejoin:round;stroke-miterlimit:2;">
    <g transform="matrix(1,0,0,1,-541.956,-71.5029)">
        <g>
            <g transform="matrix(1,0,0,1,541.956,70.9099)">
                <path d="M307.776,34.201C289.772,20.158 264.65,8.155 223.961,0.593C214.292,7.971 207.493,14.629 200.877,21.245C241.256,17.811 279.305,18.17 307.776,34.201Z" style="fill:rgb(19,72,142);"/>
            </g>
            <g transform="matrix(1,0,0,1,541.956,70.9099)">
                <path d="M167.242,71.248C159.562,87.787 158.285,105.616 157.052,124.306C168.662,111.556 180.143,100.983 193.162,91.398C184.424,85.066 175.219,78.147 167.242,71.248Z" style="fill:rgb(247,173,117);"/>
            </g>
            <g transform="matrix(1,0,0,1,541.956,70.9099)">
                <path d="M186.518,37.987C174.649,41.217 162.517,45.457 150.105,50.803C153.06,55.846 159.704,64.599 167.242,71.248C171.744,59.731 178.301,47.961 186.518,37.987Z" style="fill:rgb(247,173,117);"/>
            </g>
            <g transform="matrix(1,0,0,1,541.956,70.9099)">
                <path d="M331.672,47.968C287.09,29.476 239.414,23.614 186.518,37.987C178.301,47.961 171.744,59.731 167.242,71.248L167.242,71.256L167.235,71.241L167.242,71.248C175.219,78.147 184.424,85.066 193.162,91.398C192.845,91.624 192.534,91.857 192.223,92.089L192.223,92.097C192.294,92.041 192.364,91.992 192.435,91.941C231.981,62.291 278.177,47.446 331.672,47.968Z" style="fill:rgb(239,122,38);"/>
            </g>
        </g>
        <g>
            <g transform="matrix(1,0,0,1,541.956,70.9099)">
                <path d="M54.165,122.29C54.165,128.228 54.038,134.795 54.038,140.733C50.837,136.479 27.006,134.018 25.546,145.422C24.043,157.145 49.813,158.427 57.657,160.24C84.858,166.525 92.519,202.021 54.681,209.568C32.091,214.075 13.774,207.401 0,197.126C4.649,192.697 9.296,188.268 13.936,183.832C24.769,194.221 59.603,200.723 57.819,185.038C57.368,181.046 54.385,178.874 50.66,177.414C41.562,173.851 29.855,172.73 20.665,169.163C-7.707,158.131 2.496,126.302 27.873,122.29C36.223,120.963 45.809,121.331 54.165,122.29Z" style="fill:rgb(15,75,145);"/>
            </g>
            <g transform="matrix(1,0,0,1,541.956,70.9099)">
                <path d="M154.774,206.661L176.736,206.661L176.736,165.748C176.736,157.716 183.31,151.142 191.342,151.142C199.375,151.142 205.942,157.716 205.942,165.748L205.942,206.661L227.911,206.661L227.911,170.573C227.911,146.839 211.458,134.004 191.342,134.004C171.227,134.004 154.774,145.873 154.774,170.573L154.774,206.661Z" style="fill:rgb(15,75,145);"/>
            </g>
            <g transform="matrix(1,0,0,1,541.956,70.9099)">
                <path d="M350.967,124.807C352.695,124.807 354.403,124.884 356.088,125.032L356.088,141.798C355.947,141.798 355.799,141.791 355.651,141.791C339.127,141.791 325.734,153.328 325.734,167.561C325.734,181.794 339.127,193.331 355.651,193.331C355.799,193.331 355.947,193.331 356.088,193.326L356.088,210.09C354.403,210.238 352.695,210.316 350.967,210.316C323.554,210.316 301.33,191.174 301.33,167.561C301.33,143.949 323.554,124.807 350.967,124.807Z" style="fill:rgb(15,75,145);"/>
            </g>
            <g transform="matrix(1,0,0,1,541.956,70.9099)">
                <path d="M280.038,175.594C275.143,175.115 267.047,175.2 261.56,175.383C242.066,176.031 244.654,198.361 268.344,193.494C275.179,192.091 279.397,185.82 280.038,180.869L280.038,175.594ZM260.488,152.01C262.032,151.452 263.696,151.142 265.431,151.142C272.901,151.142 279.106,156.827 279.939,164.084C272.639,163.513 260.67,163.591 252.645,163.894C217.564,165.255 219.794,208.566 256.045,207.396C264.225,207.141 273.973,204.412 280.038,197.085L280.038,206.661L302,206.661L302,167.942C302,141.071 285.547,134.004 265.431,134.004C263.752,134.004 262.101,134.089 260.488,134.258L260.488,152.01Z" style="fill:rgb(15,75,145);"/>
            </g>
            <g transform="matrix(1,0,0,1,541.956,70.9099)">
                <path d="M100.242,165.671C100.708,144.555 134.554,144.759 134.631,165.671L100.242,165.671ZM155.31,177.166L155.31,170.573C155.31,148.554 140.089,134.004 116.88,134.004C65.301,134.004 65.301,207.938 116.88,207.938C119.333,207.938 121.731,207.763 124.058,207.423L124.058,191.603C113.346,193.445 100.545,188.55 100.242,177.166L155.31,177.166Z" style="fill:rgb(15,75,145);"/>
            </g>
        </g>
    </g>
</svg>
